# xmcd
#
# Track frame offsets:
#	150
#	17795
#	32193
#	51298
#	66930
#	84540
#	98388
#	115118
#	131785
#	150888
#	169718
#	185980
#
# Disc length: 2761 seconds
#
# Revision: 6
# Processed by: cddbd v1.5PL3 Copyright (c) Steve Scherf et al.
# Submitted via: EasyCDDAExtractor 5.0.6
#
DISCID=990ac70c
DTITLE=Chely Wright - Never Love You Enough
DYEAR=2001
DGENRE=Country
TTITLE0=Never Love You Enough
TTITLE1=Jezebel
TTITLE2=One Night In Las Vegas
TTITLE3=While I Was Waiting
TTITLE4=What If We Fly
TTITLE5=Wouldn't It Be Cool
TTITLE6=Her
TTITLE7=Love Didn't Listen
TTITLE8=For The Long Run
TTITLE9=Horoscope
TTITLE10=Not As In Love
TTITLE11=Deep Down Low
EXTD=
EXTT0=
EXTT1=
EXTT2=
EXTT3=
EXTT4=
EXTT5=
EXTT6=
EXTT7=
EXTT8=
EXTT9=
EXTT10=
EXTT11=
PLAYORDER=
